<?xml version="1.0" standalone="no"?>
<!DOCTYPE svg PUBLIC "-//W3C//DTD SVG 20010904//EN"
 "http://www.w3.org/TR/2001/REC-SVG-20010904/DTD/svg10.dtd">
<svg version="1.0" xmlns="http://www.w3.org/2000/svg"
 width="180.000000pt" height="180.000000pt" viewBox="0 0 180.000000 180.000000"
 preserveAspectRatio="xMidYMid meet">

<!-- Add a white background rectangle -->
<rect width="100%" height="100%" fill="white" />

<g transform="translate(0.000000,180.000000) scale(0.100000,-0.100000)"
fill="#000000" stroke="none">
<path d="M81 1782 c-19 -9 -44 -30 -55 -45 -21 -28 -21 -35 -21 -837 0 -802 0
-809 21 -837 11 -15 36 -36 55 -45 31 -17 91 -18 819 -18 728 0 788 1 819 18
19 9 44 30 55 45 21 28 21 35 21 837 0 802 0 809 -21 837 -11 15 -36 36 -55
45 -31 17 -91 18 -819 18 -728 0 -788 -1 -819 -18z m954 -427 c84 -22 144 -62
179 -118 25 -41 29 -58 30 -120 0 -62 -4 -80 -27 -119 -15 -26 -41 -55 -57
-65 -35 -20 -37 -29 -9 -38 41 -13 88 -65 105 -117 31 -94 -2 -219 -74 -278
-71 -58 -102 -63 -389 -68 l-263 -3 0 470 0 471 223 0 c168 0 238 -4 282 -15z"/>
<path d="M767 1193 c-4 -3 -7 -53 -7 -110 l0 -103 85 0 c104 0 147 15 165 59
15 38 8 96 -16 122 -9 10 -33 23 -53 29 -40 11 -164 14 -174 3z"/>
<path d="M760 716 l0 -116 93 0 c142 0 193 35 184 129 -3 30 -13 52 -31 70
-25 24 -33 26 -136 29 l-110 4 0 -116z"/>
</g>
</svg>
